<?xml version="1.0" encoding="UTF-8" standalone="no"?>
<!DOCTYPE svg PUBLIC "-//W3C//DTD SVG 1.1//EN"
 "http://www.w3.org/Graphics/SVG/1.1/DTD/svg11.dtd">
<!-- Generated by graphviz version 2.43.0 (0)
 -->
<!-- Title: %3 Pages: 1 -->
<svg width="2459pt" height="548pt"
 viewBox="0.00 0.00 2458.93 548.00" xmlns="http://www.w3.org/2000/svg" xmlns:xlink="http://www.w3.org/1999/xlink">
<g id="graph0" class="graph" transform="scale(1 1) rotate(0) translate(4 544)">
<title>%3</title>
<polygon fill="white" stroke="transparent" points="-4,4 -4,-544 2454.93,-544 2454.93,4 -4,4"/>
<!-- [root] module.servers_east.aws_eip.ip -->
<g id="node1" class="node">
<title>[root] module.servers_east.aws_eip.ip</title>
<polygon fill="none" stroke="black" points="1383.45,-396 1190.1,-396 1190.1,-360 1383.45,-360 1383.45,-396"/>
<text text-anchor="middle" x="1286.78" y="-373.8" font-family="Times,serif" font-size="14.00">module.servers_east.aws_eip.ip</text>
</g>
<!-- [root] module.servers_east.aws_instance.web -->
<g id="node2" class="node">
<title>[root] module.servers_east.aws_instance.web</title>
<polygon fill="none" stroke="black" points="1380.15,-180 1145.4,-180 1145.4,-144 1380.15,-144 1380.15,-180"/>
<text text-anchor="middle" x="1262.78" y="-157.8" font-family="Times,serif" font-size="14.00">module.servers_east.aws_instance.web</text>
</g>
<!-- [root] module.servers_east.aws_eip.ip&#45;&gt;[root] module.servers_east.aws_instance.web -->
<g id="edge4" class="edge">
<title>[root] module.servers_east.aws_eip.ip&#45;&gt;[root] module.servers_east.aws_instance.web</title>
<path fill="none" stroke="black" d="M1284.85,-359.85C1280.7,-322.83 1270.87,-235.18 1265.85,-190.39"/>
<polygon fill="black" stroke="black" points="1269.3,-189.78 1264.71,-180.23 1262.35,-190.56 1269.3,-189.78"/>
</g>
<!-- [root] module.servers_east.aws_security_group.ssh -->
<g id="node4" class="node">
<title>[root] module.servers_east.aws_security_group.ssh</title>
<polygon fill="none" stroke="black" points="267.33,-108 0.22,-108 0.22,-72 267.33,-72 267.33,-108"/>
<text text-anchor="middle" x="133.78" y="-85.8" font-family="Times,serif" font-size="14.00">module.servers_east.aws_security_group.ssh</text>
</g>
<!-- [root] module.servers_east.aws_instance.web&#45;&gt;[root] module.servers_east.aws_security_group.ssh -->
<g id="edge5" class="edge">
<title>[root] module.servers_east.aws_instance.web&#45;&gt;[root] module.servers_east.aws_security_group.ssh</title>
<path fill="none" stroke="black" d="M1145.36,-157.14C962.38,-150.59 597.91,-135.34 277.75,-108.05"/>
<polygon fill="black" stroke="black" points="277.6,-104.52 267.34,-107.15 277,-111.5 277.6,-104.52"/>
</g>
<!-- [root] module.servers_east.var.ami_name -->
<g id="node7" class="node">
<title>[root] module.servers_east.var.ami_name</title>
<polygon fill="none" stroke="black" points="492.11,-108 285.45,-108 285.45,-72 498.11,-72 498.11,-102 492.11,-108"/>
<polyline fill="none" stroke="black" points="492.11,-108 492.11,-102 "/>
<polyline fill="none" stroke="black" points="498.11,-102 492.11,-102 "/>
<text text-anchor="middle" x="391.78" y="-85.8" font-family="Times,serif" font-size="14.00">module.servers_east.var.ami_name</text>
</g>
<!-- [root] module.servers_east.aws_instance.web&#45;&gt;[root] module.servers_east.var.ami_name -->
<g id="edge6" class="edge">
<title>[root] module.servers_east.aws_instance.web&#45;&gt;[root] module.servers_east.var.ami_name</title>
<path fill="none" stroke="black" d="M1145.32,-155.57C998.56,-148.14 739.55,-132.95 507.91,-108.08"/>
<polygon fill="black" stroke="black" points="508.26,-104.59 497.95,-107 507.51,-111.55 508.26,-104.59"/>
</g>
<!-- [root] module.servers_east.var.instance_tag_name -->
<g id="node8" class="node">
<title>[root] module.servers_east.var.instance_tag_name</title>
<polygon fill="none" stroke="black" points="771.59,-108 515.97,-108 515.97,-72 777.59,-72 777.59,-102 771.59,-108"/>
<polyline fill="none" stroke="black" points="771.59,-108 771.59,-102 "/>
<polyline fill="none" stroke="black" points="777.59,-102 771.59,-102 "/>
<text text-anchor="middle" x="646.78" y="-85.8" font-family="Times,serif" font-size="14.00">module.servers_east.var.instance_tag_name</text>
</g>
<!-- [root] module.servers_east.aws_instance.web&#45;&gt;[root] module.servers_east.var.instance_tag_name -->
<g id="edge7" class="edge">
<title>[root] module.servers_east.aws_instance.web&#45;&gt;[root] module.servers_east.var.instance_tag_name</title>
<path fill="none" stroke="black" d="M1145.37,-148.26C1051.45,-137.99 916.1,-123.01 787.59,-108.09"/>
<polygon fill="black" stroke="black" points="787.9,-104.6 777.56,-106.92 787.09,-111.55 787.9,-104.6"/>
</g>
<!-- [root] module.servers_east.var.instance_type -->
<g id="node9" class="node">
<title>[root] module.servers_east.var.instance_type</title>
<polygon fill="none" stroke="black" points="1020.27,-108 795.29,-108 795.29,-72 1026.27,-72 1026.27,-102 1020.27,-108"/>
<polyline fill="none" stroke="black" points="1020.27,-108 1020.27,-102 "/>
<polyline fill="none" stroke="black" points="1026.27,-102 1020.27,-102 "/>
<text text-anchor="middle" x="910.78" y="-85.8" font-family="Times,serif" font-size="14.00">module.servers_east.var.instance_type</text>
</g>
<!-- [root] module.servers_east.aws_instance.web&#45;&gt;[root] module.servers_east.var.instance_type -->
<g id="edge8" class="edge">
<title>[root] module.servers_east.aws_instance.web&#45;&gt;[root] module.servers_east.var.instance_type</title>
<path fill="none" stroke="black" d="M1177.12,-143.97C1125.6,-133.72 1059.9,-120.66 1006.65,-110.07"/>
<polygon fill="black" stroke="black" points="1007.01,-106.57 996.52,-108.05 1005.64,-113.43 1007.01,-106.57"/>
</g>
<!-- [root] module.servers_east.var.key_name -->
<g id="node10" class="node">
<title>[root] module.servers_east.var.key_name</title>
<polygon fill="none" stroke="black" points="1249.33,-108 1044.23,-108 1044.23,-72 1255.33,-72 1255.33,-102 1249.33,-108"/>
<polyline fill="none" stroke="black" points="1249.33,-108 1249.33,-102 "/>
<polyline fill="none" stroke="black" points="1255.33,-102 1249.33,-102 "/>
<text text-anchor="middle" x="1149.78" y="-85.8" font-family="Times,serif" font-size="14.00">module.servers_east.var.key_name</text>
</g>
<!-- [root] module.servers_east.aws_instance.web&#45;&gt;[root] module.servers_east.var.key_name -->
<g id="edge9" class="edge">
<title>[root] module.servers_east.aws_instance.web&#45;&gt;[root] module.servers_east.var.key_name</title>
<path fill="none" stroke="black" d="M1235.13,-143.88C1220.36,-134.72 1201.99,-123.34 1186.08,-113.48"/>
<polygon fill="black" stroke="black" points="1187.87,-110.48 1177.53,-108.19 1184.18,-116.43 1187.87,-110.48"/>
</g>
<!-- [root] module.servers_east.var.key_path -->
<g id="node11" class="node">
<title>[root] module.servers_east.var.key_path</title>
<polygon fill="none" stroke="black" points="1472.61,-108 1272.94,-108 1272.94,-72 1478.61,-72 1478.61,-102 1472.61,-108"/>
<polyline fill="none" stroke="black" points="1472.61,-108 1472.61,-102 "/>
<polyline fill="none" stroke="black" points="1478.61,-102 1472.61,-102 "/>
<text text-anchor="middle" x="1375.78" y="-85.8" font-family="Times,serif" font-size="14.00">module.servers_east.var.key_path</text>
</g>
<!-- [root] module.servers_east.aws_instance.web&#45;&gt;[root] module.servers_east.var.key_path -->
<g id="edge10" class="edge">
<title>[root] module.servers_east.aws_instance.web&#45;&gt;[root] module.servers_east.var.key_path</title>
<path fill="none" stroke="black" d="M1290.42,-143.88C1305.2,-134.72 1323.57,-123.34 1339.48,-113.48"/>
<polygon fill="black" stroke="black" points="1341.37,-116.43 1348.03,-108.19 1337.68,-110.48 1341.37,-116.43"/>
</g>
<!-- [root] module.servers_east.var.provisioner_user -->
<g id="node12" class="node">
<title>[root] module.servers_east.var.provisioner_user</title>
<polygon fill="none" stroke="black" points="1738.89,-108 1496.67,-108 1496.67,-72 1744.89,-72 1744.89,-102 1738.89,-108"/>
<polyline fill="none" stroke="black" points="1738.89,-108 1738.89,-102 "/>
<polyline fill="none" stroke="black" points="1744.89,-102 1738.89,-102 "/>
<text text-anchor="middle" x="1620.78" y="-85.8" font-family="Times,serif" font-size="14.00">module.servers_east.var.provisioner_user</text>
</g>
<!-- [root] module.servers_east.aws_instance.web&#45;&gt;[root] module.servers_east.var.provisioner_user -->
<g id="edge11" class="edge">
<title>[root] module.servers_east.aws_instance.web&#45;&gt;[root] module.servers_east.var.provisioner_user</title>
<path fill="none" stroke="black" d="M1349.9,-143.97C1402.41,-133.7 1469.39,-120.6 1523.61,-110"/>
<polygon fill="black" stroke="black" points="1524.44,-113.4 1533.58,-108.05 1523.09,-106.53 1524.44,-113.4"/>
</g>
<!-- [root] module.servers_east.var.remote_exec -->
<g id="node13" class="node">
<title>[root] module.servers_east.var.remote_exec</title>
<polygon fill="none" stroke="black" points="1982.31,-108 1763.25,-108 1763.25,-72 1988.31,-72 1988.31,-102 1982.31,-108"/>
<polyline fill="none" stroke="black" points="1982.31,-108 1982.31,-102 "/>
<polyline fill="none" stroke="black" points="1988.31,-102 1982.31,-102 "/>
<text text-anchor="middle" x="1875.78" y="-85.8" font-family="Times,serif" font-size="14.00">module.servers_east.var.remote_exec</text>
</g>
<!-- [root] module.servers_east.aws_instance.web&#45;&gt;[root] module.servers_east.var.remote_exec -->
<g id="edge12" class="edge">
<title>[root] module.servers_east.aws_instance.web&#45;&gt;[root] module.servers_east.var.remote_exec</title>
<path fill="none" stroke="black" d="M1380.46,-149.33C1477.57,-139.46 1619.24,-124.5 1753.09,-108.06"/>
<polygon fill="black" stroke="black" points="1753.63,-111.52 1763.12,-106.83 1752.77,-104.58 1753.63,-111.52"/>
</g>
<!-- [root] module.servers_east.var.subnet -->
<g id="node14" class="node">
<title>[root] module.servers_east.var.subnet</title>
<polygon fill="none" stroke="black" points="2190.85,-108 2006.71,-108 2006.71,-72 2196.85,-72 2196.85,-102 2190.85,-108"/>
<polyline fill="none" stroke="black" points="2190.85,-108 2190.85,-102 "/>
<polyline fill="none" stroke="black" points="2196.85,-102 2190.85,-102 "/>
<text text-anchor="middle" x="2101.78" y="-85.8" font-family="Times,serif" font-size="14.00">module.servers_east.var.subnet</text>
</g>
<!-- [root] module.servers_east.aws_instance.web&#45;&gt;[root] module.servers_east.var.subnet -->
<g id="edge13" class="edge">
<title>[root] module.servers_east.aws_instance.web&#45;&gt;[root] module.servers_east.var.subnet</title>
<path fill="none" stroke="black" d="M1380.2,-155.8C1523.42,-148.71 1773.06,-133.98 1996.66,-108.07"/>
<polygon fill="black" stroke="black" points="1997.08,-111.54 2006.61,-106.91 1996.27,-104.59 1997.08,-111.54"/>
</g>
<!-- [root] provisioner.remote&#45;exec -->
<g id="node19" class="node">
<title>[root] provisioner.remote&#45;exec</title>
<ellipse fill="none" stroke="black" cx="2332.78" cy="-90" rx="118.31" ry="18"/>
<text text-anchor="middle" x="2332.78" y="-85.8" font-family="Times,serif" font-size="14.00">[root] provisioner.remote&#45;exec</text>
</g>
<!-- [root] module.servers_east.aws_instance.web&#45;&gt;[root] provisioner.remote&#45;exec -->
<g id="edge14" class="edge">
<title>[root] module.servers_east.aws_instance.web&#45;&gt;[root] provisioner.remote&#45;exec</title>
<path fill="none" stroke="black" d="M1380.24,-157.3C1558.84,-151.02 1909.29,-136.13 2205.78,-108 2217,-106.94 2228.75,-105.63 2240.38,-104.21"/>
<polygon fill="black" stroke="black" points="2241.07,-107.65 2250.56,-102.94 2240.21,-100.71 2241.07,-107.65"/>
</g>
<!-- [root] module.servers_east.aws_instance.web2 -->
<g id="node3" class="node">
<title>[root] module.servers_east.aws_instance.web2</title>
<polygon fill="none" stroke="black" points="1532.65,-252 1290.9,-252 1290.9,-216 1532.65,-216 1532.65,-252"/>
<text text-anchor="middle" x="1411.78" y="-229.8" font-family="Times,serif" font-size="14.00">module.servers_east.aws_instance.web2</text>
</g>
<!-- [root] module.servers_east.aws_instance.web2&#45;&gt;[root] module.servers_east.aws_instance.web -->
<g id="edge15" class="edge">
<title>[root] module.servers_east.aws_instance.web2&#45;&gt;[root] module.servers_east.aws_instance.web</title>
<path fill="none" stroke="black" d="M1375.33,-215.88C1355.14,-206.39 1329.86,-194.51 1308.37,-184.42"/>
<polygon fill="black" stroke="black" points="1309.65,-181.15 1299.11,-180.07 1306.67,-187.49 1309.65,-181.15"/>
</g>
<!-- [root] provider.aws -->
<g id="node17" class="node">
<title>[root] provider.aws</title>
<polygon fill="none" stroke="black" points="133.78,-36 55.17,-18 133.78,0 212.39,-18 133.78,-36"/>
<text text-anchor="middle" x="133.78" y="-13.8" font-family="Times,serif" font-size="14.00">provider.aws</text>
</g>
<!-- [root] module.servers_east.aws_security_group.ssh&#45;&gt;[root] provider.aws -->
<g id="edge16" class="edge">
<title>[root] module.servers_east.aws_security_group.ssh&#45;&gt;[root] provider.aws</title>
<path fill="none" stroke="black" d="M133.78,-71.7C133.78,-63.98 133.78,-54.71 133.78,-46.11"/>
<polygon fill="black" stroke="black" points="137.28,-46.1 133.78,-36.1 130.28,-46.1 137.28,-46.1"/>
</g>
<!-- [root] module.servers_east.output.ip_address -->
<g id="node5" class="node">
<title>[root] module.servers_east.output.ip_address</title>
<polygon fill="none" stroke="black" points="1143.84,-252 917.71,-252 917.71,-216 1149.84,-216 1149.84,-246 1143.84,-252"/>
<polyline fill="none" stroke="black" points="1143.84,-252 1143.84,-246 "/>
<polyline fill="none" stroke="black" points="1149.84,-246 1143.84,-246 "/>
<text text-anchor="middle" x="1033.78" y="-229.8" font-family="Times,serif" font-size="14.00">module.servers_east.output.ip_address</text>
</g>
<!-- [root] module.servers_east.output.ip_address&#45;&gt;[root] module.servers_east.aws_instance.web -->
<g id="edge17" class="edge">
<title>[root] module.servers_east.output.ip_address&#45;&gt;[root] module.servers_east.aws_instance.web</title>
<path fill="none" stroke="black" d="M1089.5,-215.97C1121.92,-206.06 1162.95,-193.51 1196.95,-183.12"/>
<polygon fill="black" stroke="black" points="1198.26,-186.38 1206.8,-180.11 1196.21,-179.69 1198.26,-186.38"/>
</g>
<!-- [root] module.servers_east.output.ip_address2 -->
<g id="node6" class="node">
<title>[root] module.servers_east.output.ip_address2</title>
<polygon fill="none" stroke="black" points="1219.34,-324 986.21,-324 986.21,-288 1225.34,-288 1225.34,-318 1219.34,-324"/>
<polyline fill="none" stroke="black" points="1219.34,-324 1219.34,-318 "/>
<polyline fill="none" stroke="black" points="1225.34,-318 1219.34,-318 "/>
<text text-anchor="middle" x="1105.78" y="-301.8" font-family="Times,serif" font-size="14.00">module.servers_east.output.ip_address2</text>
</g>
<!-- [root] module.servers_east.output.ip_address2&#45;&gt;[root] module.servers_east.aws_instance.web2 -->
<g id="edge18" class="edge">
<title>[root] module.servers_east.output.ip_address2&#45;&gt;[root] module.servers_east.aws_instance.web2</title>
<path fill="none" stroke="black" d="M1180.24,-287.97C1224.66,-277.8 1281.19,-264.87 1327.28,-254.33"/>
<polygon fill="black" stroke="black" points="1328.28,-257.69 1337.24,-252.05 1326.72,-250.87 1328.28,-257.69"/>
</g>
<!-- [root] output.ip_address_east -->
<g id="node15" class="node">
<title>[root] output.ip_address_east</title>
<polygon fill="none" stroke="black" points="997.7,-396 859.86,-396 859.86,-360 1003.7,-360 1003.7,-390 997.7,-396"/>
<polyline fill="none" stroke="black" points="997.7,-396 997.7,-390 "/>
<polyline fill="none" stroke="black" points="1003.7,-390 997.7,-390 "/>
<text text-anchor="middle" x="931.78" y="-373.8" font-family="Times,serif" font-size="14.00">output.ip_address_east</text>
</g>
<!-- [root] output.ip_address_east&#45;&gt;[root] module.servers_east.output.ip_address -->
<g id="edge19" class="edge">
<title>[root] output.ip_address_east&#45;&gt;[root] module.servers_east.output.ip_address</title>
<path fill="none" stroke="black" d="M938.28,-359.91C945.87,-341.2 959.6,-310.83 976.78,-288 984.65,-277.54 994.72,-267.41 1004.21,-258.85"/>
<polygon fill="black" stroke="black" points="1006.75,-261.28 1011.98,-252.06 1002.14,-256.01 1006.75,-261.28"/>
</g>
<!-- [root] output.ip_address_east2 -->
<g id="node16" class="node">
<title>[root] output.ip_address_east2</title>
<polygon fill="none" stroke="black" points="1166.2,-396 1021.36,-396 1021.36,-360 1172.2,-360 1172.2,-390 1166.2,-396"/>
<polyline fill="none" stroke="black" points="1166.2,-396 1166.2,-390 "/>
<polyline fill="none" stroke="black" points="1172.2,-390 1166.2,-390 "/>
<text text-anchor="middle" x="1096.78" y="-373.8" font-family="Times,serif" font-size="14.00">output.ip_address_east2</text>
</g>
<!-- [root] output.ip_address_east2&#45;&gt;[root] module.servers_east.output.ip_address2 -->
<g id="edge20" class="edge">
<title>[root] output.ip_address_east2&#45;&gt;[root] module.servers_east.output.ip_address2</title>
<path fill="none" stroke="black" d="M1099,-359.7C1099.99,-351.98 1101.19,-342.71 1102.29,-334.11"/>
<polygon fill="black" stroke="black" points="1105.77,-334.47 1103.58,-324.1 1098.83,-333.58 1105.77,-334.47"/>
</g>
<!-- [root] meta.count&#45;boundary (EachMode fixup) -->
<g id="node18" class="node">
<title>[root] meta.count&#45;boundary (EachMode fixup)</title>
<ellipse fill="none" stroke="black" cx="1101.78" cy="-450" rx="174.79" ry="18"/>
<text text-anchor="middle" x="1101.78" y="-445.8" font-family="Times,serif" font-size="14.00">[root] meta.count&#45;boundary (EachMode fixup)</text>
</g>
<!-- [root] meta.count&#45;boundary (EachMode fixup)&#45;&gt;[root] module.servers_east.aws_eip.ip -->
<g id="edge1" class="edge">
<title>[root] meta.count&#45;boundary (EachMode fixup)&#45;&gt;[root] module.servers_east.aws_eip.ip</title>
<path fill="none" stroke="black" d="M1145.62,-432.41C1171.52,-422.61 1204.54,-410.12 1232.13,-399.68"/>
<polygon fill="black" stroke="black" points="1233.53,-402.89 1241.64,-396.08 1231.05,-396.34 1233.53,-402.89"/>
</g>
<!-- [root] meta.count&#45;boundary (EachMode fixup)&#45;&gt;[root] output.ip_address_east -->
<g id="edge2" class="edge">
<title>[root] meta.count&#45;boundary (EachMode fixup)&#45;&gt;[root] output.ip_address_east</title>
<path fill="none" stroke="black" d="M1061.49,-432.41C1037.9,-422.7 1007.88,-410.33 982.66,-399.95"/>
<polygon fill="black" stroke="black" points="983.83,-396.65 973.25,-396.08 981.17,-403.12 983.83,-396.65"/>
</g>
<!-- [root] meta.count&#45;boundary (EachMode fixup)&#45;&gt;[root] output.ip_address_east2 -->
<g id="edge3" class="edge">
<title>[root] meta.count&#45;boundary (EachMode fixup)&#45;&gt;[root] output.ip_address_east2</title>
<path fill="none" stroke="black" d="M1100.54,-431.7C1099.99,-423.98 1099.33,-414.71 1098.71,-406.11"/>
<polygon fill="black" stroke="black" points="1102.2,-405.83 1098,-396.1 1095.22,-406.33 1102.2,-405.83"/>
</g>
<!-- [root] provider.aws (close) -->
<g id="node20" class="node">
<title>[root] provider.aws (close)</title>
<ellipse fill="none" stroke="black" cx="1402.78" cy="-450" rx="104.33" ry="18"/>
<text text-anchor="middle" x="1402.78" y="-445.8" font-family="Times,serif" font-size="14.00">[root] provider.aws (close)</text>
</g>
<!-- [root] provider.aws (close)&#45;&gt;[root] module.servers_east.aws_eip.ip -->
<g id="edge21" class="edge">
<title>[root] provider.aws (close)&#45;&gt;[root] module.servers_east.aws_eip.ip</title>
<path fill="none" stroke="black" d="M1375.58,-432.59C1360.21,-423.31 1340.78,-411.59 1324.01,-401.47"/>
<polygon fill="black" stroke="black" points="1325.39,-398.21 1315.02,-396.04 1321.77,-404.2 1325.39,-398.21"/>
</g>
<!-- [root] provider.aws (close)&#45;&gt;[root] module.servers_east.aws_instance.web2 -->
<g id="edge22" class="edge">
<title>[root] provider.aws (close)&#45;&gt;[root] module.servers_east.aws_instance.web2</title>
<path fill="none" stroke="black" d="M1403.5,-431.85C1405.06,-394.83 1408.74,-307.18 1410.63,-262.39"/>
<polygon fill="black" stroke="black" points="1414.13,-262.37 1411.05,-252.23 1407.14,-262.08 1414.13,-262.37"/>
</g>
<!-- [root] provisioner.remote&#45;exec (close) -->
<g id="node21" class="node">
<title>[root] provisioner.remote&#45;exec (close)</title>
<ellipse fill="none" stroke="black" cx="1583.78" cy="-306" rx="144.35" ry="18"/>
<text text-anchor="middle" x="1583.78" y="-301.8" font-family="Times,serif" font-size="14.00">[root] provisioner.remote&#45;exec (close)</text>
</g>
<!-- [root] provisioner.remote&#45;exec (close)&#45;&gt;[root] module.servers_east.aws_instance.web2 -->
<g id="edge23" class="edge">
<title>[root] provisioner.remote&#45;exec (close)&#45;&gt;[root] module.servers_east.aws_instance.web2</title>
<path fill="none" stroke="black" d="M1543.45,-288.59C1519.5,-278.84 1488.9,-266.39 1463.22,-255.94"/>
<polygon fill="black" stroke="black" points="1464.23,-252.57 1453.65,-252.04 1461.59,-259.05 1464.23,-252.57"/>
</g>
<!-- [root] root -->
<g id="node22" class="node">
<title>[root] root</title>
<ellipse fill="none" stroke="black" cx="1402.78" cy="-522" rx="46.9" ry="18"/>
<text text-anchor="middle" x="1402.78" y="-517.8" font-family="Times,serif" font-size="14.00">[root] root</text>
</g>
<!-- [root] root&#45;&gt;[root] meta.count&#45;boundary (EachMode fixup) -->
<g id="edge24" class="edge">
<title>[root] root&#45;&gt;[root] meta.count&#45;boundary (EachMode fixup)</title>
<path fill="none" stroke="black" d="M1363.74,-511.92C1317.2,-501.1 1238.31,-482.75 1179.24,-469.01"/>
<polygon fill="black" stroke="black" points="1179.73,-465.53 1169.19,-466.68 1178.14,-472.35 1179.73,-465.53"/>
</g>
<!-- [root] root&#45;&gt;[root] provider.aws (close) -->
<g id="edge25" class="edge">
<title>[root] root&#45;&gt;[root] provider.aws (close)</title>
<path fill="none" stroke="black" d="M1402.78,-503.7C1402.78,-495.98 1402.78,-486.71 1402.78,-478.11"/>
<polygon fill="black" stroke="black" points="1406.28,-478.1 1402.78,-468.1 1399.28,-478.1 1406.28,-478.1"/>
</g>
<!-- [root] root&#45;&gt;[root] provisioner.remote&#45;exec (close) -->
<g id="edge26" class="edge">
<title>[root] root&#45;&gt;[root] provisioner.remote&#45;exec (close)</title>
<path fill="none" stroke="black" d="M1440.25,-511.07C1464.51,-502.97 1495.27,-489.32 1515.78,-468 1552.38,-429.95 1570.64,-369.25 1578.58,-334.26"/>
<polygon fill="black" stroke="black" points="1582.05,-334.8 1580.72,-324.28 1575.2,-333.33 1582.05,-334.8"/>
</g>
</g>
</svg>
